<svg xmlns="http://www.w3.org/2000/svg" width="28.358" height="29.938" viewBox="0 0 28.358 29.938">
  <g id="_2" data-name="2" transform="translate(7.21 -2.385) rotate(25)">
    <path id="bell_ring_notification_alarm" d="M23.394,19.676a1.624,1.624,0,0,1-1.624-1.624V10.744a8.12,8.12,0,0,0-7.308-8.079V1H12.838V2.665A8.12,8.12,0,0,0,5.53,10.744v7.308a1.624,1.624,0,0,1-1.624,1.624H3.5V21.3h7.86a2.436,2.436,0,1,0,4.58,0H23.8V19.676ZM7.154,18.052V10.744a6.5,6.5,0,1,1,12.992,0v7.308a3.175,3.175,0,0,0,.455,1.624H6.7A3.175,3.175,0,0,0,7.154,18.052Zm7.308,4.06a.812.812,0,1,1-.812-.812A.812.812,0,0,1,14.462,22.112Z"/>
  </g>
</svg>
