<svg xmlns="http://www.w3.org/2000/svg" width="24.823" height="24.136" viewBox="0 0 24.823 24.136">
  <g id="_1" data-name="1" transform="translate(-54.09 -53.56)" opacity="0.997">
    <path id="Caminho_1444" data-name="Caminho 1444" d="M73.807,77.694a.926.926,0,0,1-.7-.316L70.15,74a14.571,14.571,0,0,1-3.648.46,13.643,13.643,0,0,1-8.714-3,9.342,9.342,0,0,1,0-14.89,14.145,14.145,0,0,1,17.425,0,9.63,9.63,0,0,1,3.7,7.445,9.777,9.777,0,0,1-4.18,7.824V76.77a.926.926,0,0,1-.926.926Zm-3.345-5.673a.926.926,0,0,1,.7.316L72.88,74.3V71.355a.926.926,0,0,1,.406-.765,8.052,8.052,0,0,0,3.777-6.583c0-4.739-4.736-8.594-10.558-8.594s-10.558,3.856-10.558,8.594,4.734,8.6,10.555,8.6a12.661,12.661,0,0,0,3.69-.541A.922.922,0,0,1,70.462,72.021Z" transform="translate(0 0)"/>
    <path id="Caminho_1445" data-name="Caminho 1445" d="M187.407,235.829a.632.632,0,0,1-.091,0c-.029,0-.062-.008-.09-.014a.762.762,0,0,1-.088-.022c-.026-.009-.058-.019-.086-.031s-.055-.025-.081-.039a.9.9,0,0,1-.078-.046c-.025-.017-.049-.035-.073-.054s-.046-.04-.068-.062-.042-.044-.062-.068a.848.848,0,0,1-.054-.073.892.892,0,0,1-.046-.078q-.022-.04-.039-.081a.881.881,0,0,1-.03-.085.946.946,0,0,1-.036-.178.9.9,0,0,1,0-.091.884.884,0,0,1,0-.091.939.939,0,0,1,.036-.178.88.88,0,0,1,.03-.085q.018-.041.039-.081a.9.9,0,0,1,.046-.078c.017-.025.035-.049.054-.073a.915.915,0,0,1,.062-.068c.022-.022.044-.042.068-.062a.847.847,0,0,1,.073-.054.767.767,0,0,1,.078-.046q.04-.021.081-.039a.84.84,0,0,1,.086-.031c.028-.009.058-.016.088-.022s.062-.011.09-.014a.9.9,0,0,1,.182,0c.03,0,.062.008.09.014a.837.837,0,0,1,.088.022.888.888,0,0,1,.085.031c.028.012.056.025.082.039a.829.829,0,0,1,.078.046.885.885,0,0,1,.073.054.915.915,0,0,1,.068.062c.022.022.042.044.062.068a.852.852,0,0,1,.054.073.9.9,0,0,1,.046.078q.021.04.039.081c.012.028.022.057.031.085s.016.062.022.088a.894.894,0,0,1,.018.181.913.913,0,0,1,0,.091.946.946,0,0,1-.036.178c-.009.027-.019.057-.031.085s-.025.055-.039.081a.894.894,0,0,1-.046.078c-.017.025-.035.049-.054.073s-.04.046-.062.068-.044.042-.068.062a.9.9,0,0,1-.073.054q-.038.025-.078.046c-.027.014-.054.027-.082.039s-.057.022-.085.031a.836.836,0,0,1-.088.022c-.03.006-.062.01-.09.014A.857.857,0,0,1,187.407,235.829Z" transform="translate(-124.216 -169.276)"/>
    <path id="Caminho_1446" data-name="Caminho 1446" d="M298.426,235.834a.9.9,0,0,1-.091,0c-.03,0-.062-.008-.09-.014a.762.762,0,0,1-.088-.022c-.026-.009-.057-.019-.085-.031s-.056-.025-.082-.039a.962.962,0,0,1-.151-.1.794.794,0,0,1-.067-.062.9.9,0,0,1-.062-.068c-.019-.023-.038-.048-.054-.073a.9.9,0,0,1-.046-.078q-.021-.04-.039-.081c-.011-.028-.022-.057-.03-.085a.744.744,0,0,1-.022-.088.958.958,0,0,1-.018-.181.9.9,0,0,1,0-.091.905.905,0,0,1,.014-.09.745.745,0,0,1,.022-.088c.009-.028.019-.057.03-.085a.814.814,0,0,1,.039-.081.9.9,0,0,1,.046-.078c.017-.025.035-.049.054-.073a.9.9,0,0,1,.062-.068c.021-.021.044-.042.067-.062a.96.96,0,0,1,.151-.1c.027-.014.054-.027.082-.039s.056-.022.085-.031a.879.879,0,0,1,.088-.022c.03-.006.062-.01.09-.014a1,1,0,0,1,.185,0c.03,0,.062.008.09.014a.845.845,0,0,1,.088.022c.027.009.057.019.085.031s.056.025.082.039.052.03.078.046a.785.785,0,0,1,.073.054.906.906,0,0,1,.068.062c.022.022.042.044.062.068a.846.846,0,0,1,.054.073.9.9,0,0,1,.047.078c.014.027.027.054.038.081a.894.894,0,0,1,.031.085c.009.029.016.062.022.088a.855.855,0,0,1,.014.09q0,.046,0,.091a.9.9,0,0,1,0,.091c0,.03-.008.062-.014.09a.8.8,0,0,1-.022.088.894.894,0,0,1-.031.085c-.011.028-.025.055-.038.081a.9.9,0,0,1-.047.078c-.017.025-.035.049-.054.073a.916.916,0,0,1-.062.068c-.022.022-.044.042-.068.062a.794.794,0,0,1-.073.054q-.038.025-.078.046c-.027.014-.054.027-.082.039s-.057.022-.085.031a.843.843,0,0,1-.088.022c-.03.006-.062.01-.09.014A.9.9,0,0,1,298.426,235.834Z" transform="translate(-228.381 -169.281)"/>
    <path id="Caminho_1447" data-name="Caminho 1447" d="M242.915,235.817a.933.933,0,0,1-.655-.271.913.913,0,0,1-.062-.068c-.019-.023-.037-.048-.054-.073a.705.705,0,0,1-.046-.078.821.821,0,0,1-.038-.082.87.87,0,0,1-.031-.085c-.009-.029-.016-.062-.022-.088a.9.9,0,0,1-.014-.09.968.968,0,0,1,0-.185.9.9,0,0,1,.014-.09.9.9,0,0,1,.053-.173.819.819,0,0,1,.038-.081c.014-.027.03-.053.046-.078a.767.767,0,0,1,.054-.073.913.913,0,0,1,.062-.068.934.934,0,0,1,.746-.267c.03,0,.062.008.09.014s.059.014.088.022a.83.83,0,0,1,.085.031c.028.012.056.025.082.039a.961.961,0,0,1,.151.1.8.8,0,0,1,.067.062.9.9,0,0,1,.062.068c.019.023.038.048.054.073a.907.907,0,0,1,.046.078q.021.04.039.081c.011.028.022.057.03.085a.752.752,0,0,1,.022.088.9.9,0,0,1,.014.09.847.847,0,0,1,0,.185.9.9,0,0,1-.014.09.744.744,0,0,1-.022.088c-.009.028-.019.057-.03.085a.821.821,0,0,1-.039.081.907.907,0,0,1-.046.078c-.017.025-.035.049-.054.073a.9.9,0,0,1-.062.068c-.021.021-.044.041-.067.062a.963.963,0,0,1-.151.1c-.027.014-.054.027-.082.039s-.056.022-.085.031-.062.016-.088.022a.816.816,0,0,1-.09.014.9.9,0,0,1-.091,0Z" transform="translate(-176.297 -169.264)"/>
  </g>
</svg>
