<svg xmlns="http://www.w3.org/2000/svg" xmlns:xlink="http://www.w3.org/1999/xlink" width="24.747" height="24.747" viewBox="0 0 24.747 24.747">
  <defs>
    <linearGradient id="linear-gradient" x1="-0.8" y1="8.259" x2="-0.8" y2="8.242" gradientUnits="objectBoundingBox">
      <stop offset="0" stop-color="#1e51ee"/>
      <stop offset="1" stop-color="#19e6ff"/>
    </linearGradient>
  </defs>
  <g id="Symbols_3_" transform="translate(-5 -5)">
    <g id="Graphics-_x2F_-App-Icons-_x2F_-Mail" transform="translate(5 5)">
      <g id="Mail-Icon" transform="translate(0 0)">
        <path id="Background_2_" d="M21.113,5a16.742,16.742,0,0,1,5.059.412,5.2,5.2,0,0,1,3.135,3.135,15.922,15.922,0,0,1,.44,5.087v7.479a16.742,16.742,0,0,1-.412,5.059A5.2,5.2,0,0,1,26.2,29.307a15.922,15.922,0,0,1-5.087.44H13.634a16.742,16.742,0,0,1-5.059-.412A5.246,5.246,0,0,1,5.44,26.172,15.556,15.556,0,0,1,5,21.113V13.634a16.742,16.742,0,0,1,.412-5.059A5.317,5.317,0,0,1,8.575,5.44,15.645,15.645,0,0,1,13.634,5Z" transform="translate(-5 -5)" fill="url(#linear-gradient)"/>
        <path id="Caminho_1519" data-name="Caminho 1519" d="M36.8,40.468c-.029,0-.086.025-.114.025H20.428a.188.188,0,0,1-.114-.025h0l5.076-4.53,1.084.993a3.141,3.141,0,0,0,4.192,0l1.084-.993,5.048,4.53Zm.314-.484V31c0-.051,0-.1-.029-.127-.029.051-5.048,4.683-5.048,4.683l5.076,4.53v-.1ZM20,40.01V31.05c0-.051,0-.1.029-.127.029.051,5.048,4.683,5.048,4.683l-5.048,4.505a.14.14,0,0,1-.029-.1Zm16.826-9.443-6.474,5.9a2.712,2.712,0,0,1-3.565,0l-6.474-5.9c-.029-.025,16.512,0,16.512,0Z" transform="translate(-16.182 -23.128)" fill="#fff"/>
      </g>
    </g>
  </g>
</svg>
