<svg xmlns="http://www.w3.org/2000/svg" width="66.135" height="66.135" viewBox="0 0 66.135 66.135">
  <g id="Layer_1" transform="translate(66.135 8.149) rotate(98)">
    <g id="Grupo_1179" data-name="Grupo 1179">
      <circle id="Elipse_403" data-name="Elipse 403" cx="29.278" cy="29.278" r="29.278" fill="#fbe158"/>
    </g>
    <g id="Grupo_1181" data-name="Grupo 1181" transform="translate(14.639 16.469)" opacity="0.2">
      <g id="Grupo_1180" data-name="Grupo 1180">
        <path id="Caminho_1512" data-name="Caminho 1512" d="M44.363,18H40.7a.92.92,0,0,0-.6.227L27.47,29.3a13.427,13.427,0,0,0-2.32-.32A9.149,9.149,0,1,0,34.3,38.128a8.7,8.7,0,0,0-.609-3.338L36.8,33.733a.915.915,0,0,0,.62-.887l-.077-3.473,3.5-.243a.916.916,0,0,0,.851-.884l.13-4.17,2.737-.608a.914.914,0,0,0,.717-.893v-3.66A.915.915,0,0,0,44.363,18ZM22.4,38.128a2.745,2.745,0,1,1-2.745,2.745A2.748,2.748,0,0,1,22.4,38.128Z" transform="translate(-16 -18)" fill="#231f20"/>
      </g>
    </g>
    <g id="Grupo_1183" data-name="Grupo 1183" transform="translate(14.639 14.639)">
      <g id="Grupo_1182" data-name="Grupo 1182">
        <path id="Caminho_1513" data-name="Caminho 1513" d="M44.363,16H40.7a.92.92,0,0,0-.6.227L27.47,27.3a13.427,13.427,0,0,0-2.32-.32A9.149,9.149,0,1,0,34.3,36.128a8.7,8.7,0,0,0-.609-3.338L36.8,31.733a.915.915,0,0,0,.62-.887l-.077-3.473,3.5-.243a.916.916,0,0,0,.851-.884l.13-4.17,2.737-.608a.914.914,0,0,0,.717-.893v-3.66A.915.915,0,0,0,44.363,16ZM22.4,36.128a2.745,2.745,0,1,1-2.745,2.745A2.748,2.748,0,0,1,22.4,36.128Z" transform="translate(-16 -16)" fill="#fff"/>
      </g>
    </g>
  </g>
</svg>
