<svg xmlns="http://www.w3.org/2000/svg" width="24" height="24.003" viewBox="0 0 24 24.003">
  <g id="Icons" transform="translate(-2.003 -2.003)" opacity="0.997">
    <path id="Caminho_1435" data-name="Caminho 1435" d="M23.434,26.006H16.575a.857.857,0,0,1-.857-.857v-6H12.289v6a.857.857,0,0,1-.857.857H4.572a.857.857,0,0,1-.857-.857V15.718H2.858a.857.857,0,0,1-.626-1.44l11.145-12a.857.857,0,0,1,1.252,0l11.145,12a.857.857,0,0,1-.626,1.44h-.857v9.431A.857.857,0,0,1,23.434,26.006Zm-6-1.715h5.144V14.861A.857.857,0,0,1,23.211,14L14,4.118,4.8,14a.857.857,0,0,1,.634.857v9.431h5.144v-6a.857.857,0,0,1,.857-.857h5.144a.857.857,0,0,1,.857.857Z" transform="translate(0 0)"/>
  </g>
</svg>
