<svg id="_1" data-name="1" xmlns="http://www.w3.org/2000/svg" width="21.95" height="14" viewBox="0 0 21.95 14">
  <path id="Caminho_1448" data-name="Caminho 1448" d="M75.261,138.158H54.949a.819.819,0,0,1,0-1.638H75.261a.819.819,0,1,1,0,1.638Z" transform="translate(-54.13 -136.52)"/>
  <path id="Caminho_1449" data-name="Caminho 1449" d="M75.261,251.358H54.949a.819.819,0,0,1,0-1.638H75.261a.819.819,0,1,1,0,1.638Z" transform="translate(-54.13 -243.539)"/>
  <path id="Caminho_1450" data-name="Caminho 1450" d="M75.261,364.558H54.949a.819.819,0,0,1,0-1.638H75.261a.819.819,0,1,1,0,1.638Z" transform="translate(-54.13 -350.558)"/>
</svg>
