<svg id="profile" xmlns="http://www.w3.org/2000/svg" width="128" height="128" viewBox="0 0 128 128">
  <circle id="Elipse_409" data-name="Elipse 409" cx="64" cy="64" r="64" fill="#0091eb"/>
  <path id="Caminho_1527" data-name="Caminho 1527" d="M77.4,75.3A3.892,3.892,0,0,1,74,71.4V65.6a14.761,14.761,0,0,0,3.8-8.7l.2-3.2a6.28,6.28,0,0,0,2.7-3.8c.7-2.5.1-4.7-1.5-4.9h-.7l.4-5.9A13.757,13.757,0,0,0,65.3,24H62.8A14.027,14.027,0,0,0,49,39.1l.4,6a1.268,1.268,0,0,0-.6-.1c-1.6.2-2.2,2.4-1.5,4.9a6.333,6.333,0,0,0,2.8,3.9l.2,3.1A14.076,14.076,0,0,0,54,65.6v5.8a3.892,3.892,0,0,1-3.4,3.9C41.8,76.8,27,83.2,27,90v14h74V90C101,83.2,86.2,76.8,77.4,75.3Z" fill="#fff"/>
</svg>
