<svg xmlns="http://www.w3.org/2000/svg" width="30" height="30" viewBox="0 0 30 30">
  <g id="Layer_2" data-name="Layer 2" transform="translate(-1 -1)">
    <path id="Caminho_1514" data-name="Caminho 1514" d="M1,16A15,15,0,1,1,16,31,15,15,0,0,1,1,16Zm28,0A13,13,0,1,0,16,29,13,13,0,0,0,29,16Z" fill="#0091eb"/>
    <path id="Caminho_1515" data-name="Caminho 1515" d="M12.13,21.59,17.71,16l-5.58-5.59a1,1,0,0,1,0-1.41h0a1,1,0,0,1,1.41,0l6.36,6.36a.91.91,0,0,1,0,1.28L13.54,23a1,1,0,0,1-1.41,0h0A1,1,0,0,1,12.13,21.59Z" fill="#0091eb"/>
  </g>
</svg>
