<svg xmlns="http://www.w3.org/2000/svg" width="8.997" height="15" viewBox="0 0 8.997 15">
  <g id="Layer_56" data-name="Layer 56" transform="translate(-6.999 -0.987)">
    <path id="Caminho_1520" data-name="Caminho 1520" d="M11.5,15.987a.5.5,0,0,1-.3-.1l-2-1.5a.5.5,0,0,1-.2-.4V9.225a4.5,4.5,0,1,1,5,0v.765a.5.5,0,0,1-.145.355l-.65.645.65.645a.5.5,0,0,1,0,.71l-.65.645.65.645a.5.5,0,0,1-.055.755l-2,1.5A.5.5,0,0,1,11.5,15.987ZM10,13.738l1.5,1.124,1.239-.93-.595-.59a.5.5,0,0,1,0-.71l.65-.645-.65-.645a.5.5,0,0,1,0-.71L13,9.784V8.95a.5.5,0,0,1,.25-.43,3.5,3.5,0,1,0-3.5,0,.5.5,0,0,1,.25.43Zm3.5-3.748Z" transform="translate(0)" fill="#101820"/>
    <circle id="Elipse_407" data-name="Elipse 407" cx="0.5" cy="0.5" r="0.5" transform="translate(10.998 3.992)" fill="#101820"/>
    <path id="Caminho_1521" data-name="Caminho 1521" d="M15,8a1,1,0,1,1,1-1A1,1,0,0,1,15,8ZM15,7Z" transform="translate(-3.502 -2.508)" fill="#101820"/>
  </g>
</svg>
